<svg xmlns="http://www.w3.org/2000/svg" viewBox="0 0 165.5 232.83"><defs><style>.cls-1,.cls-4{fill:#171717;}.cls-1,.cls-2,.cls-3{stroke:#fff;stroke-miterlimit:10;}.cls-2,.cls-3{fill:none;}.cls-2{stroke-width:0.5px;stroke-dasharray:2 1;}.cls-5{fill:#fff;}</style></defs><title>jp-logo</title><g id="Layer_2" data-name="Layer 2"><g id="bottom"><g id="coat_top" data-name="coat top"><path class="cls-1" d="M135.74,162c.14,4.24-7.28,7.51-14.75,2.54-1.55-12.86-4.25-47.67-4.25-47.67l-3,50.18s-5.29,7.22-8.33,8.91c-2.81,1.56-9.67,1-15.34,1.41-.84.06-18,0-18,0-4.49-.45-11.85-.6-13.94-1.77-3-1.69-8.34-8.91-8.34-8.91l-3-50.17v-1.76c-.57,0-2.7,36.57-4.25,49.43-7.47,5-14.89,1.7-14.75-2.54C27.1,120.57,29.16,90,29.16,90s10.67-18.74,12.6-18.74l-.31.76,13.35-6.33,6.08-6.18s16.58-2.17,20.3-2.17,20.59,2.17,20.59,2.17l6.76,6.87,13.44,6a7.48,7.48,0,0,0-.22-.72c1.93,0,12.6,18.74,12.6,18.74S136.4,120.92,135.74,162Z"/></g><path class="cls-2" d="M98.56,63.26s-13-1.18-17.27-1.18c-4.47,0-17.9,1.18-17.9,1.18"/></g><g id="poinard"><path class="cls-1" d="M89.49,58.83s-4.61,161.71-4.62,161.83l-3.71,11.18-4.29-11.18S71.46,58.83,71.46,58.83Z"/><line class="cls-3" x1="80.48" y1="68.41" x2="81.17" y2="231.84"/><line class="cls-3" x1="89.49" y1="58.83" x2="80.48" y2="68.41"/><line class="cls-3" x1="71.88" y1="58.83" x2="80.9" y2="68.41"/><path class="cls-1" d="M86.12,8.49V52.14H74.67V8.49a4.19,4.19,0,0,1,0-.5H86.1A4.19,4.19,0,0,1,86.12,8.49Z"/><path class="cls-3" d="M74.67,8h0a4.19,4.19,0,0,0,0,.5Z"/><path class="cls-3" d="M86.12,8v.5a4.19,4.19,0,0,0,0-.5Z"/><path class="cls-1" d="M86.1,8H74.69c.19-3.91,2.67-7,5.7-7S85.91,4.08,86.1,8Z"/><line class="cls-2" x1="74.67" y1="42.73" x2="86.12" y2="39.73"/><line class="cls-2" x1="74.58" y1="46.7" x2="86.03" y2="43.7"/><line class="cls-2" x1="74.58" y1="38.76" x2="86.03" y2="35.76"/><line class="cls-2" x1="74.93" y1="34.79" x2="86.38" y2="31.79"/><line class="cls-2" x1="74.93" y1="26.86" x2="86.38" y2="23.86"/><line class="cls-2" x1="74.84" y1="30.83" x2="86.29" y2="27.83"/><line class="cls-2" x1="74.84" y1="22.89" x2="86.29" y2="19.89"/><line class="cls-2" x1="74.88" y1="14.96" x2="86.33" y2="11.96"/><line class="cls-2" x1="74.8" y1="18.93" x2="86.25" y2="15.93"/><line class="cls-2" x1="74.8" y1="10.99" x2="86.25" y2="7.99"/><line class="cls-2" x1="74.4" y1="50.66" x2="85.85" y2="47.66"/><path class="cls-1" d="M108,54.46v4.33H53.49V54.46l3.58-.57a152.88,152.88,0,0,1,47.55,0Z"/></g><g id="coat-top"><g id="coat_top-2" data-name="coat top"><path class="cls-1" d="M49.78,166.77s5.29,7.22,8.33,8.91c2.09,1.16,9.46,1.31,13.95,1.77l9.12-6.39s8,6.45,8.88,6.39c5.67-.38,12.52.15,15.33-1.41,3-1.69,8.33-8.91,8.33-8.91l3-50.18s2.7,34.81,4.25,47.67c7.47,5,14.89,1.7,14.75-2.54.65-41.13-1.4-71.65-1.4-71.65s-10.67-18.74-12.6-18.74a7.48,7.48,0,0,1,.22.72l.09,0L106,65.31,81.29,127.1,70.62,103.26l-8.75-40-6.13,2.05L41.44,72.09l.31-.76c-1.93,0-12.6,18.74-12.6,18.74s-2.06,30.52-1.4,71.65c-.14,4.24,7.28,7.51,14.75,2.54,1.55-12.86,3.68-49.43,4.25-49.43v1.76Z"/><path class="cls-1" d="M104.72,68.62,108,70.26s-1.82,14.12-3.35,18.58C100.85,99.84,83,130,83,130l-1.55,6-1-3.91-.95-2S61.71,99.89,57.94,88.9c-1.54-4.46-3.35-18.58-3.35-18.58l3.26-1.64-4-2,7-7.08h5.57l-.76,6.1s0,8.61.6,11.91c.82,4.28,2.72,12.8,3.63,17.07C71.56,102.4,81.76,126,81.76,126S91,102.34,92.65,94.6c.91-4.27,2.82-12.78,3.64-17.07.63-3.3.59-11.91.59-11.91l-.74-6h5.62l6.91,7Z"/><line class="cls-2" x1="101.83" y1="74.19" x2="105.72" y2="75.28"/></g><path class="cls-2" d="M46.76,116.59S45.88,112,42.54,93c-2.65-15.1-1.09-20.91-1.09-20.91"/><line class="cls-3" x1="81.76" y1="125.99" x2="81.18" y2="171.06"/><path class="cls-2" d="M116.59,117.85s.88-4.59,4.22-23.59c2.65-15.1,1.09-20.91,1.09-20.91"/></g><rect class="cls-4" y="115.21" width="165.5" height="33.73"/><line class="cls-2" y1="115.21" x2="165.5" y2="115.21"/><line class="cls-2" x1="165.5" y1="148.94" y2="148.94"/><path class="cls-5" d="M9.6,136.71a3.93,3.93,0,0,0,1,.47,4.59,4.59,0,0,0,1.4.2,3,3,0,0,0,1.56-.35,2.23,2.23,0,0,0,.89-1,5.33,5.33,0,0,0,.4-1.68q.09-1,.09-2.28v-6.5h1.26V132a23.87,23.87,0,0,1-.13,2.66,5.93,5.93,0,0,1-.57,2A3.1,3.1,0,0,1,14.25,138a4.54,4.54,0,0,1-2.23.47,4.77,4.77,0,0,1-2.77-.79Z"/><path class="cls-5" d="M22.94,125.54H24l5.31,12.78H28l-1.66-4H20.58l-1.64,4H17.59Zm3.1,7.79L23.46,127l-2.61,6.32Z"/><path class="cls-5" d="M29.83,131.84a6.83,6.83,0,0,1,.41-2.29,6.36,6.36,0,0,1,1.18-2A6.05,6.05,0,0,1,33.33,126a5.68,5.68,0,0,1,2.57-.57,5.33,5.33,0,0,1,2.93.77,4.71,4.71,0,0,1,1.79,2l-1,.61a3.79,3.79,0,0,0-.75-1.06,4.15,4.15,0,0,0-.94-.7,4,4,0,0,0-1-.39,5,5,0,0,0-1.06-.12,4.27,4.27,0,0,0-2,.47,4.68,4.68,0,0,0-1.48,1.22,5.34,5.34,0,0,0-.91,1.7,6.19,6.19,0,0,0-.31,1.92,5.68,5.68,0,0,0,.37,2,5.77,5.77,0,0,0,1,1.72A4.84,4.84,0,0,0,34,136.85a4.15,4.15,0,0,0,1.9.44,4.75,4.75,0,0,0,1.11-.14,4.27,4.27,0,0,0,1.1-.43,4.63,4.63,0,0,0,1-.74,3.82,3.82,0,0,0,.76-1.07l1,.54a3.91,3.91,0,0,1-.86,1.27,5.69,5.69,0,0,1-1.24.93,6.18,6.18,0,0,1-1.45.58,6,6,0,0,1-1.5.2,5.11,5.11,0,0,1-2.41-.58,6.33,6.33,0,0,1-1.89-1.5,7,7,0,0,1-1.23-2.11A6.81,6.81,0,0,1,29.83,131.84Z"/><path class="cls-5" d="M43,138.32V125.55h1.26V133l7-7.43h1.39l-5.22,5.62L53,138.32H51.6l-4.9-6.43-2.41,2.5v3.92Z"/><path class="cls-5" d="M63.19,137.2v1.12H54.6V125.54H63v1.12H55.86v4.61h6.25v1.06H55.86v4.88Z"/><path class="cls-5" d="M74.64,126.65H70.08v11.66H68.82V126.65H64.27v-1.12H74.64Z"/><path class="cls-5" d="M80.63,138.32V125.54h5.29a3.32,3.32,0,0,1,1.52.35,4,4,0,0,1,1.2.92,4.37,4.37,0,0,1,.79,1.29,3.9,3.9,0,0,1,.29,1.46,4.34,4.34,0,0,1-.27,1.52,4.1,4.1,0,0,1-.76,1.29,3.79,3.79,0,0,1-1.16.9,3.28,3.28,0,0,1-1.5.34H81.89v4.72Zm1.26-5.83H86a2.14,2.14,0,0,0,1-.24,2.47,2.47,0,0,0,.78-.65,3.05,3.05,0,0,0,.5-.94,3.43,3.43,0,0,0,.18-1.11,3.11,3.11,0,0,0-.77-2.05,2.55,2.55,0,0,0-.83-.62,2.32,2.32,0,0,0-1-.23h-4Z"/><path class="cls-5" d="M97,138.41a5.41,5.41,0,0,1-2.44-.55,6.06,6.06,0,0,1-1.9-1.46,6.62,6.62,0,0,1-1.22-2.08,6.86,6.86,0,0,1-.43-2.39,6.65,6.65,0,0,1,.46-2.45,6.76,6.76,0,0,1,1.27-2.07A6.14,6.14,0,0,1,94.62,126a5.38,5.38,0,0,1,2.38-.53,5.27,5.27,0,0,1,2.44.57,6.13,6.13,0,0,1,1.89,1.49,6.86,6.86,0,0,1,1.21,2.08,6.74,6.74,0,0,1,.43,2.37,6.65,6.65,0,0,1-.46,2.45,6.74,6.74,0,0,1-1.26,2.06,6.1,6.1,0,0,1-1.9,1.42A5.38,5.38,0,0,1,97,138.41Zm-4.73-6.48a6,6,0,0,0,.34,2,5.45,5.45,0,0,0,1,1.71A4.77,4.77,0,0,0,95,136.83a4.17,4.17,0,0,0,1.93.44,4.11,4.11,0,0,0,2-.47,4.78,4.78,0,0,0,1.49-1.22,5.67,5.67,0,0,0,.94-1.71,5.88,5.88,0,0,0,0-4,5.49,5.49,0,0,0-1-1.7A4.84,4.84,0,0,0,98.88,127,4.14,4.14,0,0,0,97,126.6a4.18,4.18,0,0,0-2,.46,4.67,4.67,0,0,0-1.49,1.21,5.65,5.65,0,0,0-.94,1.71A5.86,5.86,0,0,0,92.24,131.93Z"/><path class="cls-5" d="M105.34,138.32V125.54h1.26v12.78Z"/><path class="cls-5" d="M111.07,127.88v10.44h-1.26V125.54h1l8.46,10.64V125.55h1.26v12.76h-1.1Z"/><path class="cls-5" d="M127.66,125.54h1.06L134,138.32H132.7l-1.66-4h-5.74l-1.64,4h-1.35Zm3.1,7.79L128.19,127l-2.61,6.32Z"/><path class="cls-5" d="M135.87,138.32V125.54h5.4a3.32,3.32,0,0,1,1.52.35,4,4,0,0,1,1.2.92,4.23,4.23,0,0,1,.78,1.29,4,4,0,0,1,.28,1.46,4.33,4.33,0,0,1-.21,1.34,4.14,4.14,0,0,1-.58,1.15,3.49,3.49,0,0,1-.89.86,3.14,3.14,0,0,1-1.17.48l3.13,4.93h-1.42l-3-4.72h-3.78v4.72Zm1.26-5.83h4.18a2.14,2.14,0,0,0,1-.24,2.42,2.42,0,0,0,.78-.66,3.18,3.18,0,0,0,.5-.94,3.34,3.34,0,0,0,.18-1.1,3.1,3.1,0,0,0-.77-2,2.66,2.66,0,0,0-.83-.63,2.25,2.25,0,0,0-1-.23h-4.07Z"/><path class="cls-5" d="M147.63,138.32V125.54H152a6.58,6.58,0,0,1,2.67.5,5.45,5.45,0,0,1,1.91,1.37,5.77,5.77,0,0,1,1.15,2,7.78,7.78,0,0,1,.39,2.47,7.62,7.62,0,0,1-.43,2.64,5.73,5.73,0,0,1-1.23,2,5.52,5.52,0,0,1-1.93,1.3,6.64,6.64,0,0,1-2.53.46Zm9.2-6.41a6.6,6.6,0,0,0-.32-2.11,4.79,4.79,0,0,0-.95-1.67A4.23,4.23,0,0,0,154,127a5.2,5.2,0,0,0-2.07-.39h-3.08V137.2H152a5.11,5.11,0,0,0,2.1-.4,4.27,4.27,0,0,0,1.52-1.12,4.85,4.85,0,0,0,.93-1.67A6.71,6.71,0,0,0,156.82,131.91Z"/></g></svg>